<svg width="82" height="17" viewBox="0 0 82 17" fill="none" xmlns="http://www.w3.org/2000/svg">
<path d="M2.592 16.08V11.232H7.872C11.448 11.232 13.896 9.168 13.896 5.616C13.896 2.04 11.448 0 7.872 0H0V16.08H2.592ZM7.632 2.328C10.056 2.328 11.304 3.24 11.304 5.616C11.304 7.992 10.056 8.904 7.632 8.904H2.592V2.328H7.632Z" fill="#0D0D0D"/>
<path d="M18.9493 16.32C21.6613 16.32 23.5573 15.12 24.1813 13.104H24.3493V16.08H26.7253V8.832C26.7253 5.976 25.0213 3.912 21.2293 3.912C17.4373 3.912 15.1813 5.952 15.1813 8.664V8.76H17.7493V8.664C17.7493 6.912 18.8293 6.192 21.0373 6.192C23.3173 6.192 24.1813 6.888 24.1813 8.856V9.552L18.7573 10.128C16.4053 10.392 14.9173 11.352 14.9173 13.2C14.9173 15.168 16.4773 16.32 18.9493 16.32ZM17.5093 13.032C17.5093 12.096 18.1573 11.784 19.5013 11.616L24.1813 11.088C24.1813 13.44 22.3573 14.448 19.6453 14.448C18.1573 14.448 17.5093 13.992 17.5093 13.032Z" fill="#0D0D0D"/>
<path d="M31.6311 16.08V9.384C31.6311 7.248 32.4711 6.12 34.5111 6.12C36.2871 6.12 37.0071 6.912 37.0071 8.616V9.672H39.5751V8.112C39.5751 5.856 38.3991 3.912 35.6871 3.912C33.2391 3.912 31.9431 5.448 31.5831 7.368H31.4151V4.152H29.0391V16.08H31.6311Z" fill="#0D0D0D"/>
<path d="M44.7071 16.32C47.4191 16.32 49.3151 15.12 49.9391 13.104H50.1071V16.08H52.4831V8.832C52.4831 5.976 50.7791 3.912 46.9871 3.912C43.1951 3.912 40.9391 5.952 40.9391 8.664V8.76H43.5071V8.664C43.5071 6.912 44.5871 6.192 46.7951 6.192C49.0751 6.192 49.9391 6.888 49.9391 8.856V9.552L44.5151 10.128C42.1631 10.392 40.6751 11.352 40.6751 13.2C40.6751 15.168 42.2351 16.32 44.7071 16.32ZM43.2671 13.032C43.2671 12.096 43.9151 11.784 45.2591 11.616L49.9391 11.088C49.9391 13.44 48.1151 14.448 45.4031 14.448C43.9151 14.448 43.2671 13.992 43.2671 13.032Z" fill="#0D0D0D"/>
<path d="M57.3889 16.08V0H54.7969V16.08H57.3889Z" fill="#0D0D0D"/>
<path d="M62.3811 16.08V0H59.7891V16.08H62.3811Z" fill="#0D0D0D"/>
<path d="M70.7812 16.32C74.3333 16.32 76.8293 14.568 76.8293 12.024V11.808H74.2373V12C74.2373 13.416 73.2053 14.232 70.7093 14.232C67.9493 14.232 66.8213 13.008 66.7253 10.704H76.8532C76.9252 10.344 76.9492 10.008 76.9492 9.576C76.9492 5.952 74.4293 3.912 70.7333 3.912C66.8453 3.912 64.3012 6.408 64.3012 10.128C64.3012 14.112 66.8692 16.32 70.7812 16.32ZM70.6852 5.952C73.2292 5.952 74.5013 7.008 74.5013 9.216V9.264H66.7493C66.8933 7.128 68.0452 5.952 70.6852 5.952Z" fill="#0D0D0D"/>
<path d="M81.4826 16.08V0H78.8906V16.08H81.4826Z" fill="#0D0D0D"/>
</svg>
