<svg width="96" height="20" viewBox="0 0 96 20" fill="none" xmlns="http://www.w3.org/2000/svg">
<path d="M3.49226 19V13.344H9.65226C13.8243 13.344 16.6803 10.936 16.6803 6.79199C16.6803 2.61999 13.8243 0.23999 9.65226 0.23999H0.468262V19H3.49226ZM9.37226 2.95599C12.2003 2.95599 13.6563 4.01999 13.6563 6.79199C13.6563 9.56399 12.2003 10.628 9.37226 10.628H3.49226V2.95599H9.37226Z" fill="#0D0D0D"/>
<path d="M22.5758 19.28C25.7398 19.28 27.9518 17.88 28.6798 15.528H28.8758V19H31.6478V10.544C31.6478 7.21199 29.6598 4.80399 25.2358 4.80399C20.8118 4.80399 18.1798 7.18399 18.1798 10.348V10.46H21.1758V10.348C21.1758 8.30399 22.4358 7.46399 25.0118 7.46399C27.6718 7.46399 28.6798 8.27599 28.6798 10.572V11.384L22.3518 12.056C19.6078 12.364 17.8718 13.484 17.8718 15.64C17.8718 17.936 19.6918 19.28 22.5758 19.28ZM20.8958 15.444C20.8958 14.352 21.6518 13.988 23.2198 13.792L28.6798 13.176C28.6798 15.92 26.5518 17.096 23.3878 17.096C21.6518 17.096 20.8958 16.564 20.8958 15.444Z" fill="#0D0D0D"/>
<path d="M37.3712 19V11.188C37.3712 8.69599 38.3512 7.37999 40.7312 7.37999C42.8032 7.37999 43.6432 8.30399 43.6432 10.292V11.524H46.6392V9.70399C46.6392 7.07199 45.2672 4.80399 42.1032 4.80399C39.2472 4.80399 37.7352 6.59599 37.3152 8.83599H37.1192V5.08399H34.3472V19H37.3712Z" fill="#0D0D0D"/>
<path d="M52.6266 19.28C55.7906 19.28 58.0026 17.88 58.7306 15.528H58.9266V19H61.6986V10.544C61.6986 7.21199 59.7106 4.80399 55.2866 4.80399C50.8626 4.80399 48.2306 7.18399 48.2306 10.348V10.46H51.2266V10.348C51.2266 8.30399 52.4866 7.46399 55.0626 7.46399C57.7226 7.46399 58.7306 8.27599 58.7306 10.572V11.384L52.4026 12.056C49.6586 12.364 47.9226 13.484 47.9226 15.64C47.9226 17.936 49.7426 19.28 52.6266 19.28ZM50.9466 15.444C50.9466 14.352 51.7026 13.988 53.2706 13.792L58.7306 13.176C58.7306 15.92 56.6026 17.096 53.4386 17.096C51.7026 17.096 50.9466 16.564 50.9466 15.444Z" fill="#0D0D0D"/>
<path d="M67.422 19V0.23999H64.3979V19H67.422Z" fill="#0D0D0D"/>
<path d="M73.2462 19V0.23999H70.2222V19H73.2462Z" fill="#0D0D0D"/>
<path d="M83.0464 19.28C87.1904 19.28 90.1024 17.236 90.1024 14.268V14.016H87.0784V14.24C87.0784 15.892 85.8744 16.844 82.9624 16.844C79.7424 16.844 78.4264 15.416 78.3144 12.728H90.1304C90.2144 12.308 90.2424 11.916 90.2424 11.412C90.2424 7.18399 87.3024 4.80399 82.9904 4.80399C78.4544 4.80399 75.4864 7.71599 75.4864 12.056C75.4864 16.704 78.4824 19.28 83.0464 19.28ZM82.9344 7.18399C85.9024 7.18399 87.3864 8.41599 87.3864 10.992V11.048H78.3424C78.5104 8.55599 79.8544 7.18399 82.9344 7.18399Z" fill="#0D0D0D"/>
<path d="M95.5313 19V0.23999H92.5073V19H95.5313Z" fill="#0D0D0D"/>
</svg>
